<svg xmlns="http://www.w3.org/2000/svg" width="1200" height="1034" viewBox="0 0 1200 1034" role="img" aria-labelledby="title desc" data-text-collision-check="strict">
<defs>
<linearGradient id="bg" x1="0" x2="1" y1="0" y2="1"><stop offset="0" stop-color="#f8fafc"/><stop offset="1" stop-color="#eef2ff"/></linearGradient>
<marker id="arrow" markerWidth="12" markerHeight="12" refX="6" refY="6" orient="auto"><path d="M2,2 L10,6 L2,10 z" fill="#475569"/></marker>
</defs>
<rect width="1200" height="100%" rx="28" fill="url(#bg)"/>
<title id="title">Azure Chaos Studio Experiment Flow and Security Architecture</title>
<desc id="desc">A flowchart for Azure Chaos Studio Experiment Flow and Security Architecture</desc>
<text x="600.0" y="48" text-anchor="middle" font-family="Inter, Arial, sans-serif" font-size="30" font-weight="700" fill="#0f172a">Azure Chaos Studio Experiment Flow and Security Architecture</text>
<rect x="220" y="96" width="760" height="82" rx="18" fill="#ffffff" stroke="#cbd5e1" stroke-width="2"/>
<circle cx="264" cy="137.0" r="22" fill="#2563eb"/>
<text x="264" y="144.0" text-anchor="middle" font-family="Inter, Arial, sans-serif" font-size="20" font-weight="700" fill="#ffffff">1</text>
<text x="306" y="128" font-family="Inter, Arial, sans-serif" font-size="21" fill="#0f172a">Cloud Architect / DevOps</text>
<line x1="600" y1="186" x2="600" y2="212" stroke="#475569" stroke-width="3" marker-end="url(#arrow)"/>
<rect x="220" y="224" width="760" height="82" rx="18" fill="#f8fafc" stroke="#cbd5e1" stroke-width="2"/>
<circle cx="264" cy="265.0" r="22" fill="#2563eb"/>
<text x="264" y="272.0" text-anchor="middle" font-family="Inter, Arial, sans-serif" font-size="20" font-weight="700" fill="#ffffff">2</text>
<text x="306" y="256" font-family="Inter, Arial, sans-serif" font-size="21" fill="#0f172a">Azure Chaos Studio</text>
<line x1="600" y1="314" x2="600" y2="340" stroke="#475569" stroke-width="3" marker-end="url(#arrow)"/>
<rect x="220" y="352" width="760" height="82" rx="18" fill="#ffffff" stroke="#cbd5e1" stroke-width="2"/>
<circle cx="264" cy="393.0" r="22" fill="#2563eb"/>
<text x="264" y="400.0" text-anchor="middle" font-family="Inter, Arial, sans-serif" font-size="20" font-weight="700" fill="#ffffff">3</text>
<text x="306" y="384" font-family="Inter, Arial, sans-serif" font-size="21" fill="#0f172a">Chaos Experiment (Steps &amp; Branches)</text>
<line x1="600" y1="442" x2="600" y2="468" stroke="#475569" stroke-width="3" marker-end="url(#arrow)"/>
<rect x="220" y="480" width="760" height="82" rx="18" fill="#f8fafc" stroke="#cbd5e1" stroke-width="2"/>
<circle cx="264" cy="521.0" r="22" fill="#2563eb"/>
<text x="264" y="528.0" text-anchor="middle" font-family="Inter, Arial, sans-serif" font-size="20" font-weight="700" fill="#ffffff">4</text>
<text x="306" y="512" font-family="Inter, Arial, sans-serif" font-size="21" fill="#0f172a">Microsoft Entra ID (Managed Identity)</text>
<line x1="600" y1="570" x2="600" y2="596" stroke="#475569" stroke-width="3" marker-end="url(#arrow)"/>
<rect x="220" y="608" width="760" height="82" rx="18" fill="#ffffff" stroke="#cbd5e1" stroke-width="2"/>
<circle cx="264" cy="649.0" r="22" fill="#2563eb"/>
<text x="264" y="656.0" text-anchor="middle" font-family="Inter, Arial, sans-serif" font-size="20" font-weight="700" fill="#ffffff">5</text>
<text x="306" y="640" font-family="Inter, Arial, sans-serif" font-size="21" fill="#0f172a">Target: Azure VM (Agent-based Fault)</text>
<line x1="600" y1="698" x2="600" y2="724" stroke="#475569" stroke-width="3" marker-end="url(#arrow)"/>
<rect x="220" y="736" width="760" height="82" rx="18" fill="#f8fafc" stroke="#cbd5e1" stroke-width="2"/>
<circle cx="264" cy="777.0" r="22" fill="#2563eb"/>
<text x="264" y="784.0" text-anchor="middle" font-family="Inter, Arial, sans-serif" font-size="20" font-weight="700" fill="#ffffff">6</text>
<text x="306" y="768" font-family="Inter, Arial, sans-serif" font-size="21" fill="#0f172a">Target: Azure AKS (Service-direct Fault)</text>
<line x1="600" y1="826" x2="600" y2="852" stroke="#475569" stroke-width="3" marker-end="url(#arrow)"/>
<rect x="220" y="864" width="760" height="82" rx="18" fill="#ffffff" stroke="#cbd5e1" stroke-width="2"/>
<circle cx="264" cy="905.0" r="22" fill="#2563eb"/>
<text x="264" y="912.0" text-anchor="middle" font-family="Inter, Arial, sans-serif" font-size="20" font-weight="700" fill="#ffffff">7</text>
<text x="306" y="896" font-family="Inter, Arial, sans-serif" font-size="21" fill="#0f172a">Azure Monitor (Steady State Tracking)</text>
<text x="626.0" y="206.0" font-family="Inter, Arial, sans-serif" font-size="14" fill="#475569">Defines &amp; Triggers</text>
<text x="626.0" y="334.0" font-family="Inter, Arial, sans-serif" font-size="14" fill="#475569">Executes</text>
<text x="626.0" y="453.0" font-family="Inter, Arial, sans-serif" font-size="14" fill="#475569">Authenticates via • Injects CPU/Memory</text>
<text x="626.0" y="471.0" font-family="Inter, Arial, sans-serif" font-size="14" fill="#475569">Stress • Injects Pod Failures</text>
<text x="626.0" y="590.0" font-family="Inter, Arial, sans-serif" font-size="14" fill="#475569">Grants Permission to Inject</text>
<text x="626.0" y="718.0" font-family="Inter, Arial, sans-serif" font-size="14" fill="#475569">Emits Metrics</text>
<text x="626.0" y="846.0" font-family="Inter, Arial, sans-serif" font-size="14" fill="#475569">Emits Metrics</text>
</svg>
