<svg xmlns="http://www.w3.org/2000/svg" width="1200" height="906" viewBox="0 0 1200 906" role="img" aria-labelledby="title desc" data-text-collision-check="strict">
<defs>
<linearGradient id="bg" x1="0" x2="1" y1="0" y2="1"><stop offset="0" stop-color="#f8fafc"/><stop offset="1" stop-color="#eef2ff"/></linearGradient>
<marker id="arrow" markerWidth="12" markerHeight="12" refX="6" refY="6" orient="auto"><path d="M2,2 L10,6 L2,10 z" fill="#475569"/></marker>
</defs>
<rect width="1200" height="100%" rx="28" fill="url(#bg)"/>
<title id="title">k8s-aibom Detection &amp; BOM Generation Flow</title>
<desc id="desc">A flowchart for k8s-aibom Detection &amp; BOM Generation Flow</desc>
<text x="600.0" y="48" text-anchor="middle" font-family="Inter, Arial, sans-serif" font-size="30" font-weight="700" fill="#0f172a">k8s-aibom Detection &amp; BOM Generation Flow</text>
<rect x="220" y="96" width="760" height="82" rx="18" fill="#ffffff" stroke="#cbd5e1" stroke-width="2"/>
<circle cx="264" cy="137.0" r="22" fill="#2563eb"/>
<text x="264" y="144.0" text-anchor="middle" font-family="Inter, Arial, sans-serif" font-size="20" font-weight="700" fill="#ffffff">1</text>
<text x="306" y="128" font-family="Inter, Arial, sans-serif" font-size="21" fill="#0f172a">Developer (Deploys Pod)</text>
<line x1="600" y1="186" x2="600" y2="212" stroke="#475569" stroke-width="3" marker-end="url(#arrow)"/>
<rect x="220" y="224" width="760" height="82" rx="18" fill="#f8fafc" stroke="#cbd5e1" stroke-width="2"/>
<circle cx="264" cy="265.0" r="22" fill="#2563eb"/>
<text x="264" y="272.0" text-anchor="middle" font-family="Inter, Arial, sans-serif" font-size="20" font-weight="700" fill="#ffffff">2</text>
<text x="306" y="256" font-family="Inter, Arial, sans-serif" font-size="21" fill="#0f172a">Kubernetes API Server</text>
<line x1="600" y1="314" x2="600" y2="340" stroke="#475569" stroke-width="3" marker-end="url(#arrow)"/>
<rect x="220" y="352" width="760" height="82" rx="18" fill="#ffffff" stroke="#cbd5e1" stroke-width="2"/>
<circle cx="264" cy="393.0" r="22" fill="#2563eb"/>
<text x="264" y="400.0" text-anchor="middle" font-family="Inter, Arial, sans-serif" font-size="20" font-weight="700" fill="#ffffff">3</text>
<text x="306" y="384" font-family="Inter, Arial, sans-serif" font-size="21" fill="#0f172a">k8s-aibom Controller</text>
<line x1="600" y1="442" x2="600" y2="468" stroke="#475569" stroke-width="3" marker-end="url(#arrow)"/>
<rect x="220" y="480" width="760" height="82" rx="18" fill="#f8fafc" stroke="#cbd5e1" stroke-width="2"/>
<circle cx="264" cy="521.0" r="22" fill="#2563eb"/>
<text x="264" y="528.0" text-anchor="middle" font-family="Inter, Arial, sans-serif" font-size="20" font-weight="700" fill="#ffffff">4</text>
<text x="306" y="512" font-family="Inter, Arial, sans-serif" font-size="21" fill="#0f172a">Spec &amp; Env Analysis</text>
<line x1="600" y1="570" x2="600" y2="596" stroke="#475569" stroke-width="3" marker-end="url(#arrow)"/>
<rect x="220" y="608" width="760" height="82" rx="18" fill="#ffffff" stroke="#cbd5e1" stroke-width="2"/>
<circle cx="264" cy="649.0" r="22" fill="#2563eb"/>
<text x="264" y="656.0" text-anchor="middle" font-family="Inter, Arial, sans-serif" font-size="20" font-weight="700" fill="#ffffff">5</text>
<text x="306" y="640" font-family="Inter, Arial, sans-serif" font-size="21" fill="#0f172a">AIBOM Custom Resource</text>
<line x1="600" y1="698" x2="600" y2="724" stroke="#475569" stroke-width="3" marker-end="url(#arrow)"/>
<rect x="220" y="736" width="760" height="82" rx="18" fill="#f8fafc" stroke="#cbd5e1" stroke-width="2"/>
<circle cx="264" cy="777.0" r="22" fill="#2563eb"/>
<text x="264" y="784.0" text-anchor="middle" font-family="Inter, Arial, sans-serif" font-size="20" font-weight="700" fill="#ffffff">6</text>
<text x="306" y="768" font-family="Inter, Arial, sans-serif" font-size="21" fill="#0f172a">Security Team / Scanner</text>
<text x="626.0" y="206.0" font-family="Inter, Arial, sans-serif" font-size="14" fill="#475569">kubectl apply</text>
<text x="626.0" y="334.0" font-family="Inter, Arial, sans-serif" font-size="14" fill="#475569">Pod Created Event</text>
<text x="626.0" y="462.0" font-family="Inter, Arial, sans-serif" font-size="14" fill="#475569">Watch Pod Events; Inspect Image &amp; Args</text>
<text x="626.0" y="590.0" font-family="Inter, Arial, sans-serif" font-size="14" fill="#475569">Generate CycloneDX ML-BOM</text>
<text x="626.0" y="718.0" font-family="Inter, Arial, sans-serif" font-size="14" fill="#475569">Audit &amp; Compliance Scan</text>
</svg>
