<svg xmlns="http://www.w3.org/2000/svg" width="1200" height="592" viewBox="0 0 1200 592" role="img" aria-labelledby="title desc" data-text-collision-check="strict">
<rect width="1200" height="100%" rx="28" fill="#f8fafc"/>
<title id="title">Get-WinEvent vs wevtutil Feature Comparison</title>
<desc id="desc">A horizontal bar chart for Get-WinEvent vs wevtutil Feature Comparison</desc>
<text x="600.0" y="50" text-anchor="middle" font-family="Inter, Arial, sans-serif" font-size="30" font-weight="700" fill="#0f172a">Get-WinEvent vs wevtutil Feature Comparison</text>
<text x="600.0" y="82" text-anchor="middle" font-family="Inter, Arial, sans-serif" font-size="16" fill="#475569"></text>
<text x="232" y="144" text-anchor="end" font-family="Inter, Arial, sans-serif" font-size="18" fill="#0f172a">Query logs</text>
<rect x="250" y="116" width="830" height="34" rx="10" fill="#e2e8f0"/>
<rect x="250" y="116" width="830" height="34" rx="10" fill="#2563eb"/>
<text x="1094" y="140" font-family="Inter, Arial, sans-serif" font-size="17" font-weight="700" fill="#0f172a">100</text>
<text x="232" y="202" text-anchor="end" font-family="Inter, Arial, sans-serif" font-size="18" fill="#0f172a">Filter by ID/Level</text>
<rect x="250" y="174" width="830" height="34" rx="10" fill="#e2e8f0"/>
<rect x="250" y="174" width="830" height="34" rx="10" fill="#0891b2"/>
<text x="1094" y="198" font-family="Inter, Arial, sans-serif" font-size="17" font-weight="700" fill="#0f172a">100</text>
<text x="232" y="260" text-anchor="end" font-family="Inter, Arial, sans-serif" font-size="18" fill="#0f172a">Remote access</text>
<rect x="250" y="232" width="830" height="34" rx="10" fill="#e2e8f0"/>
<rect x="250" y="232" width="830" height="34" rx="10" fill="#2563eb"/>
<text x="1094" y="256" font-family="Inter, Arial, sans-serif" font-size="17" font-weight="700" fill="#0f172a">100</text>
<text x="232" y="318" text-anchor="end" font-family="Inter, Arial, sans-serif" font-size="18" fill="#0f172a">Export logs</text>
<rect x="250" y="290" width="830" height="34" rx="10" fill="#e2e8f0"/>
<rect x="250" y="290" width="830" height="34" rx="10" fill="#0891b2"/>
<text x="1094" y="314" font-family="Inter, Arial, sans-serif" font-size="17" font-weight="700" fill="#0f172a">100</text>
<text x="232" y="376" text-anchor="end" font-family="Inter, Arial, sans-serif" font-size="18" fill="#0f172a">Modify logs</text>
<rect x="250" y="348" width="830" height="34" rx="10" fill="#e2e8f0"/>
<rect x="250" y="348" width="415" height="34" rx="10" fill="#2563eb"/>
<text x="679" y="372" font-family="Inter, Arial, sans-serif" font-size="17" font-weight="700" fill="#0f172a">50</text>
<text x="232" y="434" text-anchor="end" font-family="Inter, Arial, sans-serif" font-size="18" fill="#0f172a">Scripting integration</text>
<rect x="250" y="406" width="830" height="34" rx="10" fill="#e2e8f0"/>
<rect x="250" y="406" width="830" height="34" rx="10" fill="#0891b2"/>
<text x="1094" y="430" font-family="Inter, Arial, sans-serif" font-size="17" font-weight="700" fill="#0f172a">100</text>
<text x="232" y="492" text-anchor="end" font-family="Inter, Arial, sans-serif" font-size="18" fill="#0f172a">Supported OS</text>
<rect x="250" y="464" width="830" height="34" rx="10" fill="#e2e8f0"/>
<rect x="250" y="464" width="747" height="34" rx="10" fill="#2563eb"/>
<text x="1011" y="488" font-family="Inter, Arial, sans-serif" font-size="17" font-weight="700" fill="#0f172a">90</text>
</svg>