<svg xmlns="http://www.w3.org/2000/svg" width="1200" height="778" viewBox="0 0 1200 778" role="img" aria-labelledby="title desc">
<defs>
<linearGradient id="bg" x1="0" x2="1" y1="0" y2="1"><stop offset="0" stop-color="#f8fafc"/><stop offset="1" stop-color="#eef2ff"/></linearGradient>
<marker id="arrow" markerWidth="12" markerHeight="12" refX="6" refY="6" orient="auto"><path d="M2,2 L10,6 L2,10 z" fill="#475569"/></marker>
</defs>
<rect width="1200" height="100%" rx="28" fill="url(#bg)"/>
<title id="title">Ghostcommit Indirect Prompt Injection Attack Flow</title>
<desc id="desc">A flowchart for Ghostcommit Indirect Prompt Injection Attack Flow</desc>
<text x="600.0" y="48" text-anchor="middle" font-family="Inter, Arial, sans-serif" font-size="30" font-weight="700" fill="#0f172a">Ghostcommit Indirect Prompt Injection Attack Flow</text>
<rect x="220" y="96" width="760" height="82" rx="18" fill="#ffffff" stroke="#cbd5e1" stroke-width="2"/>
<circle cx="264" cy="137.0" r="22" fill="#2563eb"/>
<text x="264" y="144.0" text-anchor="middle" font-family="Inter, Arial, sans-serif" font-size="20" font-weight="700" fill="#ffffff">1</text>
<text x="306" y="128" font-family="Inter, Arial, sans-serif" font-size="21" fill="#0f172a">Attacker</text>
<line x1="600" y1="186" x2="600" y2="212" stroke="#475569" stroke-width="3" marker-end="url(#arrow)"/>
<rect x="220" y="224" width="760" height="82" rx="18" fill="#f8fafc" stroke="#cbd5e1" stroke-width="2"/>
<circle cx="264" cy="265.0" r="22" fill="#2563eb"/>
<text x="264" y="272.0" text-anchor="middle" font-family="Inter, Arial, sans-serif" font-size="20" font-weight="700" fill="#ffffff">2</text>
<text x="306" y="256" font-family="Inter, Arial, sans-serif" font-size="21" fill="#0f172a">Pull Request (with malicious PNG)</text>
<line x1="600" y1="314" x2="600" y2="340" stroke="#475569" stroke-width="3" marker-end="url(#arrow)"/>
<rect x="220" y="352" width="760" height="82" rx="18" fill="#ffffff" stroke="#cbd5e1" stroke-width="2"/>
<circle cx="264" cy="393.0" r="22" fill="#2563eb"/>
<text x="264" y="400.0" text-anchor="middle" font-family="Inter, Arial, sans-serif" font-size="20" font-weight="700" fill="#ffffff">3</text>
<text x="306" y="384" font-family="Inter, Arial, sans-serif" font-size="21" fill="#0f172a">AI Code Review Agent</text>
<line x1="600" y1="442" x2="600" y2="468" stroke="#475569" stroke-width="3" marker-end="url(#arrow)"/>
<rect x="220" y="480" width="760" height="82" rx="18" fill="#f8fafc" stroke="#cbd5e1" stroke-width="2"/>
<circle cx="264" cy="521.0" r="22" fill="#2563eb"/>
<text x="264" y="528.0" text-anchor="middle" font-family="Inter, Arial, sans-serif" font-size="20" font-weight="700" fill="#ffffff">4</text>
<text x="306" y="512" font-family="Inter, Arial, sans-serif" font-size="21" fill="#0f172a">.env Secrets File</text>
<line x1="600" y1="570" x2="600" y2="596" stroke="#475569" stroke-width="3" marker-end="url(#arrow)"/>
<rect x="220" y="608" width="760" height="82" rx="18" fill="#ffffff" stroke="#cbd5e1" stroke-width="2"/>
<circle cx="264" cy="649.0" r="22" fill="#2563eb"/>
<text x="264" y="656.0" text-anchor="middle" font-family="Inter, Arial, sans-serif" font-size="20" font-weight="700" fill="#ffffff">5</text>
<text x="306" y="640" font-family="Inter, Arial, sans-serif" font-size="21" fill="#0f172a">Exfiltrated Secrets</text>
<text x="626.0" y="206.0" font-family="Inter, Arial, sans-serif" font-size="14" fill="#475569">Submits PR containing prompt injection in PNG</text>
<text x="626.0" y="334.0" font-family="Inter, Arial, sans-serif" font-size="14" fill="#475569">Triggers review; agent parses image text/metadata</text>
<text x="626.0" y="462.0" font-family="Inter, Arial, sans-serif" font-size="14" fill="#475569">Bypasses system prompt; reads local secrets</text>
<text x="626.0" y="590.0" font-family="Inter, Arial, sans-serif" font-size="14" fill="#475569">Writes secrets into public code or comments</text>
</svg>