<svg xmlns="http://www.w3.org/2000/svg" width="1200" height="534" viewBox="0 0 1200 534" role="img" aria-labelledby="title desc" data-text-collision-check="strict">
<rect width="1200" height="100%" rx="28" fill="#f8fafc"/>
<title id="title">Query Latency (ms) vs. Dataset Size (Vectors)</title>
<desc id="desc">A horizontal bar chart for Query Latency (ms) vs. Dataset Size (Vectors)</desc>
<text x="600.0" y="50" text-anchor="middle" font-family="Inter, Arial, sans-serif" font-size="30" font-weight="700" fill="#0f172a">Query Latency (ms) vs. Dataset Size (Vectors)</text>
<text x="600.0" y="82" text-anchor="middle" font-family="Inter, Arial, sans-serif" font-size="16" fill="#475569">ms</text>
<text x="232" y="144" text-anchor="end" font-family="Inter, Arial, sans-serif" font-size="18" fill="#0f172a">pgvector (100k vectors)</text>
<rect x="250" y="116" width="830" height="34" rx="10" fill="#e2e8f0"/>
<rect x="250" y="116" width="71" height="34" rx="10" fill="#2563eb"/>
<text x="335" y="140" font-family="Inter, Arial, sans-serif" font-size="17" font-weight="700" fill="#0f172a">3</text>
<text x="232" y="202" text-anchor="end" font-family="Inter, Arial, sans-serif" font-size="18" fill="#0f172a">Specialized DB (100k vectors)</text>
<rect x="250" y="174" width="830" height="34" rx="10" fill="#e2e8f0"/>
<rect x="250" y="174" width="47" height="34" rx="10" fill="#0891b2"/>
<text x="311" y="198" font-family="Inter, Arial, sans-serif" font-size="17" font-weight="700" fill="#0f172a">2</text>
<text x="232" y="260" text-anchor="end" font-family="Inter, Arial, sans-serif" font-size="18" fill="#0f172a">pgvector (1M vectors)</text>
<rect x="250" y="232" width="830" height="34" rx="10" fill="#e2e8f0"/>
<rect x="250" y="232" width="189" height="34" rx="10" fill="#2563eb"/>
<text x="453" y="256" font-family="Inter, Arial, sans-serif" font-size="17" font-weight="700" fill="#0f172a">8</text>
<text x="232" y="318" text-anchor="end" font-family="Inter, Arial, sans-serif" font-size="18" fill="#0f172a">Specialized DB (1M vectors)</text>
<rect x="250" y="290" width="830" height="34" rx="10" fill="#e2e8f0"/>
<rect x="250" y="290" width="94" height="34" rx="10" fill="#0891b2"/>
<text x="358" y="314" font-family="Inter, Arial, sans-serif" font-size="17" font-weight="700" fill="#0f172a">4</text>
<text x="232" y="376" text-anchor="end" font-family="Inter, Arial, sans-serif" font-size="18" fill="#0f172a">pgvector (10M vectors)</text>
<rect x="250" y="348" width="830" height="34" rx="10" fill="#e2e8f0"/>
<rect x="250" y="348" width="830" height="34" rx="10" fill="#2563eb"/>
<text x="1094" y="372" font-family="Inter, Arial, sans-serif" font-size="17" font-weight="700" fill="#0f172a">35</text>
<text x="232" y="434" text-anchor="end" font-family="Inter, Arial, sans-serif" font-size="18" fill="#0f172a">Specialized DB (10M vectors)</text>
<rect x="250" y="406" width="830" height="34" rx="10" fill="#e2e8f0"/>
<rect x="250" y="406" width="284" height="34" rx="10" fill="#0891b2"/>
<text x="548" y="430" font-family="Inter, Arial, sans-serif" font-size="17" font-weight="700" fill="#0f172a">12</text>
</svg>