<svg xmlns="http://www.w3.org/2000/svg" viewBox="0 0 512 512" role="img" aria-labelledby="title desc">
  <title id="title">Compile My Mind global networking icon</title>
  <desc id="desc">A flat purplish globe with connected network nodes for a software, IT, and networking blog.</desc>
  <defs>
    <clipPath id="globeClip">
      <circle cx="256" cy="256" r="212"/>
    </clipPath>
  </defs>

  <circle cx="256" cy="256" r="214" fill="#D8C8FF"/>
  <g clip-path="url(#globeClip)" fill="none" stroke="#211433" stroke-linecap="round" stroke-linejoin="round">
    <path d="M46 256h420" stroke-width="18"/>
    <path d="M256 46v420" stroke-width="18"/>
    <path d="M86 118c82 43 258 43 340 0" stroke-width="17"/>
    <path d="M86 394c82-43 258-43 340 0" stroke-width="17"/>
    <path d="M156 58c-74 116-74 280 0 396" stroke-width="18"/>
    <path d="M356 58c74 116 74 280 0 396" stroke-width="18"/>
  </g>

  <g fill="none" stroke="#211433" stroke-width="20" stroke-linecap="round" stroke-linejoin="round">
    <path d="M66 226c55-12 96-17 144-14 72 5 128 27 176 61"/>
    <path d="M210 212c17-44 39-78 68-104 46 36 82 88 108 165"/>
    <path d="M136 440c88-34 184-91 250-167"/>
    <path d="M136 440c-5-86 19-166 74-228"/>
    <path d="M386 273l62 66"/>
  </g>

  <g stroke="#211433" stroke-width="16">
    <circle cx="66" cy="226" r="26" fill="#9B5DE5"/>
    <circle cx="210" cy="212" r="27" fill="#C084FC"/>
    <circle cx="278" cy="108" r="27" fill="#A855F7"/>
    <circle cx="386" cy="273" r="29" fill="#B678F0"/>
    <circle cx="448" cy="339" r="27" fill="#8B5CF6"/>
    <circle cx="136" cy="440" r="27" fill="#C084FC"/>
  </g>
</svg>
